<?xml version="1.0" encoding="UTF-8" standalone="no"?>
<!-- Created with Inkscape (http://www.inkscape.org/) -->

<svg
   width="75.323753mm"
   height="8.8772984mm"
   viewBox="0 0 75.323753 8.8772984"
   version="1.1"
   id="svg1"
   inkscape:version="1.4 (86a8ad7, 2024-10-11)"
   sodipodi:docname="vaudburne_logo_vector.svg"
   inkscape:export-filename="vaudburne_logo_vector.svg"
   inkscape:export-xdpi="96"
   inkscape:export-ydpi="96"
   xmlns:inkscape="http://www.inkscape.org/namespaces/inkscape"
   xmlns:sodipodi="http://sodipodi.sourceforge.net/DTD/sodipodi-0.dtd"
   xmlns="http://www.w3.org/2000/svg"
   xmlns:svg="http://www.w3.org/2000/svg">
  <sodipodi:namedview
     id="namedview1"
     pagecolor="#000000"
     bordercolor="#000000"
     borderopacity="0.25"
     inkscape:showpageshadow="false"
     inkscape:pageopacity="0.0"
     inkscape:pagecheckerboard="0"
     inkscape:deskcolor="#d1d1d1"
     inkscape:document-units="mm"
     showborder="false"
     borderlayer="false"
     inkscape:zoom="2.8284271"
     inkscape:cx="134.70384"
     inkscape:cy="94.929085"
     inkscape:window-width="1920"
     inkscape:window-height="1009"
     inkscape:window-x="1912"
     inkscape:window-y="-8"
     inkscape:window-maximized="1"
     inkscape:current-layer="layer1">
    <inkscape:page
       x="0"
       y="0"
       width="75.323753"
       height="8.8772984"
       id="page2"
       margin="0"
       bleed="0" />
  </sodipodi:namedview>
  <defs
     id="defs1" />
  <g
     inkscape:label="Layer 1"
     inkscape:groupmode="layer"
     id="layer1"
     transform="translate(-107.8917,-55.07042)">
    <g
       id="text1"
       style="font-size:12.7px;stroke-width:0.264583"
       aria-label="Vaudburne Games">
      <path
         style="font-family:Isometretos;-inkscape-font-specification:Isometretos;fill:#0076ff"
         d="m 109.1617,55.819718 -1.27,-0.7493 v 8.8773 l 2.5527,-1.4859 -1.2827,-0.7366 z m 1.2827,-0.7493 v 7.3914 l 1.2827,-0.7366 v -5.9055 z m 5.1054,2.9591 -1.2827,0.7366 1.2827,0.7493 -1.2827,0.7366 1.2827,0.7366 v 1.4732 l 1.2827,0.7366 v -4.4323 z m -1.2827,2.2225 -1.27,0.7366 v 1.4732 l 1.27,0.7366 1.2827,-0.7366 -1.2827,-0.7366 z m 6.38811,-2.2225 v 4.4323 l 1.2827,0.7366 v -4.4323 z m -1.2827,0.7366 -1.27,-0.7366 v 4.4323 l 1.27,0.7366 1.2827,-0.7366 -1.2827,-0.7366 z m 5.1054,0 -1.27,0.7493 v 2.9464 l 1.27,0.7366 1.2827,-0.7366 -1.2827,-0.7366 z m 0,-2.9464 v 1.4732 l 1.2827,0.7366 -1.2827,0.7366 1.2827,0.7493 v 2.9464 l 1.2827,0.7366 v -5.9055 z"
         id="path4" />
      <path
         style="font-family:Isometretos;-inkscape-font-specification:Isometretos;fill:#ff8900"
         d="m 129.58332,55.819718 -1.27,-0.7493 v 7.3914 l 1.27,0.7366 1.2827,-0.7366 -1.2827,-0.7366 z m 1.2827,2.2098 -1.2827,0.7366 1.2827,0.7493 v 2.9464 l 1.2827,-0.7366 v -2.9591 z m 5.10541,0 v 4.4323 l 1.2827,0.7366 v -4.4323 z m -1.2827,0.7366 -1.27,-0.7366 v 4.4323 l 1.27,0.7366 1.2827,-0.7366 -1.2827,-0.7366 z m 3.8354,3.6957 1.27,0.7366 v -4.4323 l -1.27,-0.7366 z m 3.8354,-3.6957 -1.2827,-0.7366 -1.2827,0.7366 1.2827,0.7493 v 1.4732 l 1.2827,-0.7366 z m 1.27001,3.6957 1.27,0.7366 v -4.4323 l -1.27,-0.7366 z m 2.5527,-4.4323 -1.2827,0.7366 1.2827,0.7493 v 2.9464 l 1.2827,0.7366 v -4.4323 z m 2.5527,1.4859 v 2.9464 l 1.27,0.7366 1.2827,-0.7366 -1.2827,-0.7366 v -2.9591 z m 2.5527,-1.4859 -1.2827,0.7366 1.2827,0.7493 -1.2827,0.7366 1.2827,0.7366 1.2827,-0.7366 v -1.4859 z"
         id="path5" />
      <path
         style="font-family:Isometretos;-inkscape-font-specification:Isometretos;fill:#ffffff"
         d="m 160.22845,55.819718 -1.2827,-0.7493 -1.2827,0.7493 1.2827,0.7366 z m -3.8354,0.7366 v 5.9055 l 1.27,0.7366 1.2827,-0.7366 -1.2827,-0.7366 v -5.9055 z m 2.5527,1.4732 -1.2827,0.7366 1.2827,0.7493 v 2.9464 l 1.2827,0.7366 v -4.4323 z m 5.1054,0 -1.2827,0.7366 1.2827,0.7493 -1.2827,0.7366 1.2827,0.7366 v 1.4732 l 1.2827,0.7366 v -4.4323 z m -1.2827,2.2225 -1.27,0.7366 v 1.4732 l 1.27,0.7366 1.2827,-0.7366 -1.2827,-0.7366 z m 3.83541,2.2098 1.27,0.7366 v -4.4323 l -1.27,-0.7366 z m 1.27,-3.6957 1.2827,0.7493 v 2.9464 l 1.2827,0.7366 v -4.4323 l -1.2827,-0.7366 z m 3.8481,-0.7366 -1.2827,0.7366 1.2827,0.7493 v 2.9464 l 1.27,0.7366 v -4.4323 z m 2.5527,1.4859 v 2.9464 l 1.27,0.7366 1.2827,-0.7366 -1.2827,-0.7366 v -2.9591 z m 2.5527,-1.4859 -1.2827,0.7366 1.2827,0.7493 -1.2827,0.7366 1.2827,0.7366 1.2827,-0.7366 v -1.4859 z m 2.5527,4.4323 1.27,0.7366 1.2827,-0.7366 -1.2827,-0.7366 z m 3.8354,-3.6957 -1.2827,-0.7366 -1.2827,0.7366 1.2827,0.7493 z m -2.5654,1.4859 v -1.4859 l -1.27,0.7493 v 1.4732 l 1.27,0.7366 1.2827,-0.7366 v 1.4732 l 1.2827,-0.7366 v -1.4732 l -1.2827,-0.7366 z"
         id="path6" />
    </g>
  </g>
</svg>
